# xmcd
#
# Track frame offsets:
#	150
#	7875
#	23974
#	41248
#	61090
#	82416
#	99046
#	120864
#	133887
#	152105
#	154885
#	173135
#	191162
#
# Disc length: 2790 seconds
#
# Revision: 0
# Processed by: cddbd v1.5.1PL0 Copyright (c) Steve Scherf et al.
# Submitted via: dBpowerAMP V4.0
#
DISCID=a30ae40d
DTITLE=Mr. David - Southern Soul Singer
DYEAR=2005
DGENRE=Blues
TTITLE0=Pimpin Ken Intro
TTITLE1=Where U Want Me To Put It
TTITLE2=Better When You Steal It
TTITLE3=You Don't Apreciate
TTITLE4=Jody's Creepin'
TTITLE5=2 Step Like We Used To
TTITLE6=I'll Satisfy
TTITLE7=Trouble In My Life
TTITLE8=Big Girl Loving
TTITLE9=I Love The Music (Outro)
TTITLE10=Shoo Da Wop
TTITLE11=Hate The Game
TTITLE12=Slide On
EXTD=
EXTT0=
EXTT1=
EXTT2=
EXTT3=
EXTT4=
EXTT5=
EXTT6=
EXTT7=
EXTT8=
EXTT9=
EXTT10=
EXTT11=
EXTT12=
PLAYORDER=
